<svg width="512" height="512" xmlns="http://www.w3.org/2000/svg">
  <rect width="512" height="512" fill="#3b82f6"/>
  <g transform="translate(256, 256)">
    <!-- Brain outline -->
    <path d="M -80 -60 Q -100 -80, -80 -100 Q -40 -120, 0 -100 Q 40 -120, 80 -100 Q 100 -80, 80 -60 Q 100 -20, 80 20 Q 100 60, 60 80 Q 20 100, -20 80 Q -60 100, -100 60 Q -120 20, -100 -20 Q -120 -60, -80 -60 Z"
          fill="none" stroke="#ffffff" stroke-width="8"/>

    <!-- Neural connections -->
    <circle cx="0" cy="-60" r="8" fill="#ffffff"/>
    <circle cx="-50" cy="-30" r="8" fill="#ffffff"/>
    <circle cx="50" cy="-30" r="8" fill="#ffffff"/>
    <circle cx="-40" cy="20" r="8" fill="#ffffff"/>
    <circle cx="40" cy="20" r="8" fill="#ffffff"/>
    <circle cx="0" cy="50" r="8" fill="#ffffff"/>

    <line x1="0" y1="-60" x2="-50" y2="-30" stroke="#ffffff" stroke-width="3"/>
    <line x1="0" y1="-60" x2="50" y2="-30" stroke="#ffffff" stroke-width="3"/>
    <line x1="-50" y1="-30" x2="-40" y2="20" stroke="#ffffff" stroke-width="3"/>
    <line x1="50" y1="-30" x2="40" y2="20" stroke="#ffffff" stroke-width="3"/>
    <line x1="-40" y1="20" x2="0" y2="50" stroke="#ffffff" stroke-width="3"/>
    <line x1="40" y1="20" x2="0" y2="50" stroke="#ffffff" stroke-width="3"/>

    <!-- MM text -->
    <text x="0" y="100" font-family="Arial, sans-serif" font-size="48" font-weight="bold" fill="#ffffff" text-anchor="middle">MM</text>
  </g>
</svg>